<svg width="120" height="120" viewBox="0 0 120 120" fill="none" xmlns="http://www.w3.org/2000/svg">
<path d="M93.75 105H70.5655C74.4662 101.523 78.1449 97.8047 81.5799 93.867C94.4481 79.0681 101.25 63.4671 101.25 48.75C101.25 37.8098 96.904 27.3177 89.1682 19.5818C81.4323 11.846 70.9402 7.5 60 7.5C49.0598 7.5 38.5677 11.846 30.8318 19.5818C23.096 27.3177 18.75 37.8098 18.75 48.75C18.75 63.4671 25.5519 79.0681 38.4201 93.867C41.8551 97.8047 45.5338 101.523 49.4345 105H26.25C25.2554 105 24.3016 105.395 23.5983 106.098C22.8951 106.802 22.5 107.755 22.5 108.75C22.5 109.745 22.8951 110.698 23.5983 111.402C24.3016 112.105 25.2554 112.5 26.25 112.5H93.75C94.7446 112.5 95.6984 112.105 96.4016 111.402C97.1049 110.698 97.5 109.745 97.5 108.75C97.5 107.755 97.1049 106.802 96.4016 106.098C95.6984 105.395 94.7446 105 93.75 105ZM60.0001 33.75C62.9668 33.75 65.8669 34.6297 68.3337 36.278C70.8004 37.9262 72.723 40.2689 73.8583 43.0097C74.9936 45.7506 75.2907 48.7666 74.7119 51.6764C74.1331 54.5861 72.7045 57.2588 70.6067 59.3566C68.5089 61.4544 65.8362 62.883 62.9265 63.4618C60.0168 64.0406 57.0008 63.7435 54.2599 62.6082C51.519 61.4729 49.1763 59.5503 47.5281 57.0836C45.8799 54.6168 45.0001 51.7167 45.0001 48.75C45.0001 46.7802 45.3881 44.8296 46.1419 43.0097C46.8957 41.1898 48.0006 39.5362 49.3935 38.1434C50.7864 36.7505 52.4399 35.6456 54.2598 34.8918C56.0797 34.138 58.0303 33.75 60.0001 33.75V33.75Z" fill="#046DBF"/>
</svg>
