<svg width="80" height="80" viewBox="0 0 80 80" fill="none" xmlns="http://www.w3.org/2000/svg">
<path d="M40 80C62.0914 80 80 62.0914 80 40C80 17.9086 62.0914 0 40 0C17.9086 0 0 17.9086 0 40C0 62.0914 17.9086 80 40 80Z" fill="#25D366"/>
<path fill-rule="evenodd" clip-rule="evenodd" d="M41.3181 62.254H41.3083C37.3275 62.2527 33.416 61.2539 29.9419 59.3589L17.333 62.6665L20.7074 50.3412C18.6259 46.734 17.5306 42.6423 17.5324 38.4502C17.5376 25.336 28.2077 14.6665 41.3179 14.6665C47.6807 14.6693 53.6527 17.1463 58.1433 21.6422C62.634 26.1379 65.1058 32.1137 65.1032 38.469C65.098 51.5803 54.4322 62.2487 41.3181 62.254ZM30.5261 55.053L31.248 55.4814C34.2833 57.2826 37.7627 58.2357 41.3101 58.2371H41.3181C52.2144 58.2371 61.0829 49.3684 61.0872 38.4676C61.0893 33.1852 59.0349 28.2183 55.3025 24.4815C51.57 20.7447 46.6063 18.6857 41.3259 18.6839C30.4212 18.6839 21.5526 27.5517 21.5483 38.4516C21.5468 42.1871 22.592 45.825 24.5709 48.9726L25.041 49.7205L23.0438 57.0157L30.5261 55.053ZM52.487 43.5899C52.9015 43.7903 53.1814 43.9255 53.301 44.125C53.4495 44.3728 53.4495 45.5628 52.9545 46.9513C52.459 48.3395 50.0848 49.6065 48.9428 49.777C47.919 49.9301 46.6232 49.994 45.1996 49.5415C44.3364 49.2677 43.2295 48.902 41.8115 48.2896C36.2399 45.8839 32.4747 40.4838 31.7631 39.4632C31.7132 39.3917 31.6784 39.3417 31.6589 39.3157L31.6541 39.3093C31.3396 38.8897 29.2322 36.0779 29.2322 33.1678C29.2322 30.4302 30.5769 28.9953 31.1959 28.3349C31.2383 28.2896 31.2773 28.248 31.3122 28.2098C31.857 27.6148 32.5009 27.4661 32.8971 27.4661C33.2932 27.4661 33.6899 27.4698 34.0361 27.4871C34.0789 27.4893 34.1233 27.489 34.1692 27.4888C34.5156 27.4867 34.9474 27.4842 35.3733 28.5073C35.5372 28.9011 35.7769 29.4848 36.0298 30.1004C36.5412 31.3455 37.1063 32.7211 37.2057 32.9202C37.3543 33.2177 37.4533 33.5646 37.2552 33.9614C37.2255 34.0209 37.198 34.0771 37.1717 34.1307C37.0229 34.4345 36.9135 34.6579 36.6609 34.9528C36.5616 35.0687 36.459 35.1937 36.3564 35.3187C36.1519 35.5677 35.9475 35.8167 35.7694 35.994C35.4719 36.2904 35.1622 36.6119 35.5089 37.2069C35.8556 37.8019 37.0483 39.748 38.8151 41.324C40.7143 43.018 42.3649 43.734 43.2016 44.0969C43.365 44.1678 43.4974 44.2252 43.5945 44.2738C44.1885 44.5714 44.5352 44.5216 44.8819 44.125C45.2286 43.7284 46.3676 42.3896 46.7637 41.7947C47.1599 41.1999 47.5562 41.299 48.1009 41.4973C48.6458 41.6958 51.5677 43.1334 52.162 43.4308C52.278 43.4889 52.3865 43.5413 52.487 43.5899Z" fill="#FDFDFD"/>
</svg>
