<svg width="59" height="60" viewBox="0 0 59 60" fill="none" xmlns="http://www.w3.org/2000/svg">
<path d="M46.0937 52.5H34.6947C36.6126 50.7615 38.4213 48.9024 40.1101 46.9335C46.437 39.5341 49.7812 31.7336 49.7812 24.375C49.7812 18.9049 47.6445 13.6589 43.841 9.79092C40.0375 5.92299 34.8789 3.75 29.5 3.75C24.1211 3.75 18.9625 5.92299 15.159 9.79092C11.3555 13.6589 9.21875 18.9049 9.21875 24.375C9.21875 31.7336 12.563 39.5341 18.8899 46.9335C20.5788 48.9024 22.3874 50.7615 24.3053 52.5H12.9062C12.4173 52.5 11.9483 52.6975 11.6025 53.0492C11.2568 53.4008 11.0625 53.8777 11.0625 54.375C11.0625 54.8723 11.2568 55.3492 11.6025 55.7008C11.9483 56.0525 12.4173 56.25 12.9062 56.25H46.0937C46.5827 56.25 47.0517 56.0525 47.3975 55.7008C47.7432 55.3492 47.9375 54.8723 47.9375 54.375C47.9375 53.8777 47.7432 53.4008 47.3975 53.0492C47.0517 52.6975 46.5827 52.5 46.0937 52.5ZM29.5001 16.875C30.9587 16.875 32.3846 17.3149 33.5974 18.139C34.8102 18.9631 35.7555 20.1344 36.3137 21.5049C36.8719 22.8753 37.0179 24.3833 36.7333 25.8382C36.4488 27.293 35.7464 28.6294 34.715 29.6783C33.6836 30.7272 32.3695 31.4415 30.9388 31.7309C29.5082 32.0203 28.0254 31.8718 26.6778 31.3041C25.3302 30.7364 24.1783 29.7751 23.368 28.5418C22.5576 27.3084 22.1251 25.8584 22.1251 24.375C22.125 23.3901 22.3158 22.4148 22.6864 21.5049C23.0571 20.5949 23.6003 19.7681 24.2851 19.0717C24.97 18.3752 25.783 17.8228 26.6778 17.4459C27.5725 17.069 28.5316 16.875 29.5001 16.875V16.875Z" fill="#046DBF"/>
</svg>
