<svg width="80" height="80" viewBox="0 0 80 80" fill="none" xmlns="http://www.w3.org/2000/svg">
<path d="M40 80C62.0914 80 80 62.0914 80 40C80 17.9086 62.0914 0 40 0C17.9086 0 0 17.9086 0 40C0 62.0914 17.9086 80 40 80Z" fill="url(#paint0_linear_82_857)"/>
<path d="M32.6663 58.3332C31.3705 58.3332 31.5907 57.8439 31.1437 56.61L27.333 44.0685L56.6663 26.6665" fill="#C8DAEA"/>
<path d="M32.667 58.3334C33.667 58.3334 34.1088 57.8761 34.667 57.3334L40.0003 52.1474L33.3477 48.1357" fill="#A9C9DD"/>
<path d="M33.347 48.1366L49.467 60.0463C51.3065 61.0613 52.6342 60.5358 53.0924 58.3385L59.654 27.4175C60.3258 24.7241 58.6273 23.5025 56.8676 24.3014L18.3376 39.1584C15.7076 40.2133 15.7229 41.6806 17.8582 42.3344L27.7458 45.4205L50.6368 30.9788C51.7175 30.3235 52.7093 30.6758 51.8952 31.3983" fill="url(#paint1_linear_82_857)"/>
<defs>
<linearGradient id="paint0_linear_82_857" x1="30.004" y1="3.336" x2="10.004" y2="50" gradientUnits="userSpaceOnUse">
<stop stop-color="#37AEE2"/>
<stop offset="1" stop-color="#1E96C8"/>
</linearGradient>
<linearGradient id="paint1_linear_82_857" x1="34.9931" y1="42.457" x2="39.267" y2="56.2819" gradientUnits="userSpaceOnUse">
<stop stop-color="#EFF7FC"/>
<stop offset="1" stop-color="white"/>
</linearGradient>
</defs>
</svg>
