<svg width="28" height="28" viewBox="0 0 28 28" fill="none" xmlns="http://www.w3.org/2000/svg">
<path d="M0 14C0 6.26801 6.26801 0 14 0C21.732 0 28 6.26801 28 14C28 21.732 21.732 28 14 28C6.26801 28 0 21.732 0 14Z" fill="#4C6C91"/>
<path d="M14.7322 18.5943C14.7322 18.5943 15.0017 18.5649 15.1398 18.4194C15.2661 18.286 15.2618 18.0344 15.2618 18.0344C15.2618 18.0344 15.245 16.8593 15.8008 16.6858C16.3486 16.5152 17.0519 17.8222 17.7984 18.3247C18.3623 18.7047 18.7903 18.6216 18.7903 18.6216L20.785 18.5943C20.785 18.5943 21.828 18.5312 21.3335 17.7261C21.2926 17.6601 21.045 17.1303 19.8508 16.042C18.5996 14.9027 18.7676 15.087 20.2737 13.1161C21.1911 11.9159 21.5577 11.1832 21.443 10.8699C21.3342 10.5702 20.6593 10.6498 20.6593 10.6498L18.4141 10.6634C18.4141 10.6634 18.2476 10.6412 18.1242 10.7136C18.0036 10.7846 17.9255 10.9502 17.9255 10.9502C17.9255 10.9502 17.5705 11.8787 17.0965 12.6687C16.0966 14.3349 15.6971 14.4231 15.5335 14.3199C15.1529 14.0783 15.2479 13.3506 15.2479 12.8336C15.2479 11.2184 15.4977 10.5451 14.7622 10.3709C14.5182 10.3128 14.3385 10.2748 13.7141 10.2684C12.9128 10.2605 12.235 10.2713 11.8508 10.4555C11.5952 10.5781 11.398 10.852 11.5185 10.8678C11.6668 10.8871 12.0028 10.9567 12.181 11.1947C12.411 11.5023 12.403 12.192 12.403 12.192C12.403 12.192 12.5352 14.0933 12.0941 14.3292C11.7917 14.4912 11.3768 14.1607 10.485 12.6487C10.0285 11.8744 9.68377 11.0183 9.68377 11.0183C9.68377 11.0183 9.6173 10.8584 9.49825 10.7724C9.35436 10.6685 9.1535 10.6362 9.1535 10.6362L7.02004 10.6498C7.02004 10.6498 6.69939 10.6584 6.5818 10.7954C6.47736 10.9165 6.57377 11.1682 6.57377 11.1682C6.57377 11.1682 8.24417 15.0046 10.1359 16.9382C11.8706 18.7105 13.8397 18.5943 13.8397 18.5943H14.7322Z" fill="white"/>
</svg>
